<svg id="Layer_5" height="512" viewBox="0 0 24 24" width="512" xmlns="http://www.w3.org/2000/svg" data-name="Layer 5" fill="#ffffff">
  <path d="m15.1606 4.51a3.0313 3.0313 0 0 1 -2.1337-2.51h.9731a1 1 0 0 0 0-2h-4a1 1 0 0 0 0 2h1.027a5.0509 5.0509 0 0 0 3.5018 4.4077 1 1 0 1 0 .6318-1.8977z"/>
  <path d="m22.707 6.293-3-3a1 1 0 0 0 -1.414 1.414l.7929.793-.7631.7631a9.9641 9.9641 0 0 0 -12.6456 0l-.7631-.7631.7929-.793a1 1 0 0 0 -1.414-1.414l-3 3a1 1 0 1 0 1.414 1.414l.793-.7929.7631.7631a10 10 0 1 0 15.4738 0l.7631-.7631.793.7929a1 1 0 0 0 1.414-1.414zm-6 12.414a.9995.9995 0 0 1 -1.414 0l-4-4a1 1 0 0 1 -.293-.707v-4a1 1 0 0 1 2 0v3.5859l3.707 3.7071a.9994.9994 0 0 1 0 1.414z"/>
</svg>