<?xml version="1.0" encoding="UTF-8"?><svg id="Capa_2" xmlns="http://www.w3.org/2000/svg" viewBox="0 0 553.1 138.69"><defs><style>.cls-1{fill:#f4c70b;}.cls-2{fill:#ef1a0a;}.cls-3{fill:#083bf7;}</style></defs><g id="Capa_1-2"><g><g><path d="m160.01,0h10.09v73.72l27.56-26.66h14.36l-29.25,27.56,32.22,33h-14.88l-30.02-31.83v31.83h-10.09V0Z"/><path d="m215.01,77.35c0-4.74.82-9.06,2.46-12.94,1.64-3.88,3.88-7.22,6.73-10.03,2.85-2.8,6.25-4.98,10.22-6.54,3.97-1.55,8.28-2.33,12.94-2.33s8.97.78,12.94,2.33c3.97,1.55,7.38,3.73,10.22,6.54,2.85,2.8,5.09,6.15,6.73,10.03,1.64,3.88,2.46,8.2,2.46,12.94s-.82,9.06-2.46,12.94c-1.64,3.88-3.88,7.23-6.73,10.03-2.85,2.8-6.26,4.98-10.22,6.54-3.97,1.55-8.28,2.33-12.94,2.33s-8.97-.78-12.94-2.33c-3.97-1.55-7.38-3.73-10.22-6.54-2.85-2.8-5.09-6.15-6.73-10.03-1.64-3.88-2.46-8.2-2.46-12.94Zm10.87,0c0,3.19.5,6.15,1.49,8.86.99,2.72,2.44,5.09,4.33,7.12,1.9,2.03,4.16,3.62,6.79,4.79,2.63,1.17,5.58,1.75,8.86,1.75s6.23-.58,8.86-1.75c2.63-1.16,4.9-2.76,6.79-4.79,1.9-2.03,3.34-4.4,4.34-7.12.99-2.72,1.49-5.67,1.49-8.86s-.5-6.15-1.49-8.86c-.99-2.72-2.44-5.09-4.34-7.12-1.9-2.03-4.16-3.62-6.79-4.79-2.63-1.17-5.59-1.75-8.86-1.75s-6.23.58-8.86,1.75c-2.63,1.16-4.9,2.76-6.79,4.79-1.9,2.03-3.34,4.4-4.33,7.12-.99,2.72-1.49,5.67-1.49,8.86Z"/><path d="m292.4,18h10.09v89.63h-10.09V18Z"/><path d="m328.63,18h10.09v89.63h-10.09V18Z"/><path d="m356.37,54.83c3.11-3.19,6.79-5.54,11.06-7.05,4.27-1.51,8.61-2.26,13.01-2.26,8.97,0,15.44,2.11,19.41,6.34,3.97,4.23,5.95,10.66,5.95,19.28v26.01c0,1.73.08,3.52.26,5.37.17,1.86.39,3.56.65,5.11h-9.71c-.35-1.38-.54-2.91-.58-4.59-.04-1.68-.06-1.42-.06-2.72,0,.51-1.95,2.12-2.34,2.52-1.06,1.07-2.25,2.03-3.52,2.84-4.28,2.76-8.87,3.32-13.84,3.32-3.11,0-6.51-.21-9.23-.98s-5.09-1.92-7.12-3.43c-2.03-1.51-3.65-3.38-4.85-5.63-1.21-2.24-1.81-4.83-1.81-7.76,0-5,1.29-8.93,3.88-11.78,2.59-2.85,5.8-4.96,9.64-6.34,3.84-1.38,7.98-2.24,12.42-2.59,4.44-.34,8.52-.52,12.23-.52h3.88v-1.81c0-4.4-1.32-7.72-3.95-9.96-2.63-2.24-6.32-3.36-11.06-3.36-3.28,0-6.49.54-9.64,1.62-3.15,1.08-5.93,2.74-8.35,4.98l-6.34-6.6Zm29.25,23.68c-6.47,0-11.6.91-15.4,2.72-3.8,1.81-5.69,4.79-5.69,8.93,0,3.8,1.27,6.49,3.82,8.09,2.54,1.6,5.71,2.39,9.51,2.39,2.93,0,5.5-.5,7.7-1.49,2.2-.99,4.03-2.31,5.5-3.95,1.47-1.64,2.59-3.56,3.36-5.76.78-2.2,1.21-4.55,1.29-7.05v-3.88h-10.09Z"/><path d="m481.33,104.91c0,11.04-2.83,19.43-8.48,25.17-5.65,5.74-13.83,8.61-24.52,8.61-5.95,0-11.32-.86-16.11-2.59-4.79-1.73-9.34-4.7-13.65-8.93l7.25-8.28c3.19,3.45,6.58,6.06,10.16,7.83,3.58,1.77,7.7,2.65,12.36,2.65s8.22-.67,11.19-2.01c2.98-1.34,5.33-3.15,7.05-5.44,1.72-2.29,2.93-4.9,3.62-7.83.69-2.93,1.04-6,1.04-9.19v-7.76h-.26c-2.42,3.88-5.56,6.73-9.45,8.54-3.88,1.81-7.85,2.72-11.91,2.72-4.75,0-9.1-.78-13.07-2.33-3.97-1.55-7.38-3.71-10.22-6.47-2.85-2.76-5.05-6.04-6.6-9.83-1.55-3.8-2.33-7.94-2.33-12.42,0-4.92.78-9.36,2.33-13.33,1.55-3.97,3.73-7.31,6.54-10.03,2.8-2.72,6.19-4.81,10.16-6.28,3.97-1.47,8.37-2.2,13.2-2.2,2.07,0,4.14.24,6.21.71,2.07.48,4.08,1.21,6.02,2.2,1.94.99,3.69,2.24,5.24,3.75,1.55,1.51,2.85,3.26,3.88,5.24h.26v-10.35h10.09v57.85Zm-53.06-27.56c0,3.11.56,5.98,1.68,8.61,1.12,2.63,2.65,4.92,4.59,6.86,1.94,1.94,4.21,3.47,6.79,4.59,2.59,1.12,5.35,1.68,8.28,1.68,3.45,0,6.51-.6,9.19-1.81,2.67-1.21,4.94-2.82,6.79-4.85,1.85-2.03,3.26-4.36,4.21-6.99.95-2.63,1.42-5.41,1.42-8.35,0-3.28-.52-6.28-1.55-8.99-1.04-2.72-2.5-5.07-4.4-7.05-1.9-1.98-4.19-3.51-6.86-4.59-2.67-1.08-5.61-1.62-8.8-1.62s-6.1.58-8.73,1.75c-2.63,1.16-4.88,2.76-6.73,4.79-1.86,2.03-3.3,4.4-4.33,7.12-1.04,2.72-1.55,5.67-1.55,8.86Z"/><path d="m552.51,87.52c-.27,4.71-3.41,13.72-13.18,18.98-4.13,2.23-9.66,2.68-15.35,2.68-4.75,0-9.02-.84-12.81-2.52-3.8-1.68-7.01-3.95-9.64-6.79-2.63-2.85-4.66-6.21-6.08-10.09-1.42-3.88-2.14-8.02-2.14-12.42,0-4.66.78-8.95,2.33-12.88,1.55-3.92,3.71-7.29,6.47-10.09,2.76-2.8,6.04-4.98,9.83-6.54,3.8-1.55,7.94-2.33,12.42-2.33,4.23,0,8.11.71,11.65,2.14,3.54,1.42,6.58,3.49,9.12,6.21,2.54,2.72,4.51,6.04,5.89,9.96,1.38,3.93,2.07,8.39,2.07,13.39v3.24h-48.92c.17,2.59.8,5.07,1.88,7.44,1.08,2.37,2.48,4.44,4.21,6.21,1.72,1.77,3.75,3.17,6.08,4.21s5.78,2.22,8.54,2.22c4.4,0,6.68-.57,9.71-2.12,3.02-1.55,6.43-3.89,7.63-10.7l10.28-.19Zm-10.28-15.61c-.17-5.18-1.86-9.32-5.05-12.42-3.19-3.11-7.59-4.66-13.2-4.66s-10.14,1.55-13.59,4.66c-3.45,3.11-5.52,7.25-6.21,12.42h38.05Z"/></g><g><rect class="cls-1" width="35.65" height="35.65"/><rect x="47.54" width="59.42" height="35.65"/><rect class="cls-3" y="47.54" width="35.65" height="59.42"/><rect class="cls-2" x="47.54" y="47.54" width="59.42" height="59.42"/></g></g></g></svg>